<svg width="48" height="50" viewBox="0 0 48 50" fill="none" xmlns="http://www.w3.org/2000/svg">
<path d="M24.0432 0.1875C10.8147 0.1875 0.0876465 11.5499 0.0876465 25.5672C0.0876465 36.7809 6.95165 46.2944 16.4699 49.6504C17.6672 49.8853 18.1067 49.0998 18.1067 48.4295C18.1067 47.8243 18.0845 45.825 18.0742 43.7042C11.4097 45.2395 10.0034 40.7097 10.0034 40.7097C8.9137 37.7761 7.34358 36.996 7.34358 36.996C5.17009 35.4208 7.50742 35.4532 7.50742 35.4532C9.91297 35.6318 11.1796 38.0686 11.1796 38.0686C13.3162 41.9487 16.7837 40.8269 18.1507 40.1784C18.3657 38.5385 18.9866 37.418 19.6716 36.7846C14.3508 36.1429 8.7574 33.9666 8.7574 24.2417C8.7574 21.4707 9.6932 19.2066 11.2256 17.4293C10.9769 16.7896 10.1569 14.2086 11.4577 10.7127C11.4577 10.7127 13.4693 10.0306 18.0472 13.3143C19.9581 12.7519 22.0074 12.4699 24.0432 12.4602C26.0791 12.4699 28.13 12.7519 30.0444 13.3143C34.6167 10.0306 36.6256 10.7127 36.6256 10.7127C37.9295 14.2086 37.1091 16.7896 36.8604 17.4293C38.3964 19.2066 39.3259 21.4707 39.3259 24.2417C39.3259 33.9897 33.7218 36.1361 28.3874 36.7645C29.2467 37.5521 30.0123 39.0966 30.0123 41.4645C30.0123 44.86 29.9845 47.5931 29.9845 48.4295C29.9845 49.1049 30.4157 49.8963 31.63 49.647C41.1431 46.2873 47.9984 36.7771 47.9984 25.5672C47.9984 11.5499 37.273 0.1875 24.0432 0.1875Z" fill="white"/>
<path d="M9.16085 36.6275C9.10809 36.7541 8.92085 36.7915 8.75027 36.7049C8.57652 36.6221 8.47893 36.4502 8.53526 36.3237C8.58683 36.1938 8.77447 36.1581 8.94782 36.2442C9.12197 36.3275 9.22115 36.501 9.16085 36.6275Z" fill="white"/>
<path d="M10.131 37.7741C10.0168 37.8863 9.79346 37.8342 9.64192 37.6568C9.48523 37.4799 9.45587 37.2432 9.57171 37.1293C9.68953 37.0171 9.90612 37.0697 10.0632 37.2466C10.2199 37.4256 10.2505 37.6606 10.131 37.7741Z" fill="white"/>
<path d="M11.0757 39.2358C10.929 39.3438 10.689 39.2426 10.5406 39.0169C10.3938 38.7912 10.3938 38.5205 10.5438 38.4121C10.6925 38.3036 10.929 38.4011 11.0793 38.6252C11.2257 38.8542 11.2257 39.1253 11.0757 39.2358Z" fill="white"/>
<path d="M12.3698 40.648C12.2385 40.8014 11.9588 40.7602 11.7541 40.5509C11.5446 40.3462 11.4863 40.0558 11.618 39.9024C11.7509 39.7486 12.0322 39.7918 12.2385 39.9995C12.4463 40.2037 12.5098 40.4962 12.3698 40.648Z" fill="white"/>
<path d="M14.1549 41.4679C14.097 41.6667 13.8276 41.7571 13.5563 41.6726C13.2853 41.5856 13.108 41.3528 13.1628 41.1519C13.2191 40.9518 13.4896 40.8577 13.763 40.948C14.0335 41.0346 14.2112 41.2658 14.1549 41.4679Z" fill="white"/>
<path d="M16.1154 41.6199C16.1221 41.8292 15.892 42.0028 15.6072 42.0062C15.3208 42.0133 15.0891 41.8439 15.0859 41.638C15.0859 41.4266 15.3109 41.2547 15.5973 41.2497C15.8821 41.2438 16.1154 41.4119 16.1154 41.6199Z" fill="white"/>
<path d="M17.9396 41.2909C17.9737 41.4952 17.7757 41.7049 17.4929 41.7604C17.2148 41.8146 16.9574 41.6885 16.9221 41.4859C16.8876 41.2766 17.0891 41.0669 17.3668 41.0127C17.65 40.9606 17.9035 41.0833 17.9396 41.2909Z" fill="white"/>
</svg>
