<svg width="40" height="40" viewBox="0 0 40 40" fill="none" xmlns="http://www.w3.org/2000/svg">
<g id="icon/action/help_outline_24px">
<path id="icon/action/help_outline_24px_2" fill-rule="evenodd" clip-rule="evenodd" d="M3.33331 20C3.33331 10.8 10.8 3.33334 20 3.33334C29.2 3.33334 36.6666 10.8 36.6666 20C36.6666 29.2 29.2 36.6667 20 36.6667C10.8 36.6667 3.33331 29.2 3.33331 20ZM21.6666 26.6667V30H18.3333V26.6667H21.6666ZM20 33.3333C12.65 33.3333 6.66665 27.35 6.66665 20C6.66665 12.65 12.65 6.66668 20 6.66668C27.35 6.66668 33.3333 12.65 33.3333 20C33.3333 27.35 27.35 33.3333 20 33.3333ZM13.3333 16.6667C13.3333 12.9833 16.3166 10 20 10C23.6833 10 26.6666 12.9833 26.6666 16.6667C26.6666 18.8049 25.3499 19.9555 24.0679 21.0759C22.8517 22.1388 21.6666 23.1744 21.6666 25H18.3333C18.3333 21.9646 19.9035 20.761 21.284 19.7028C22.367 18.8727 23.3333 18.132 23.3333 16.6667C23.3333 14.8333 21.8333 13.3333 20 13.3333C18.1666 13.3333 16.6666 14.8333 16.6666 16.6667H13.3333Z" fill="white"/>
</g>
</svg>
