<svg width="234" height="56" viewBox="0 0 234 56" fill="none" xmlns="http://www.w3.org/2000/svg">
<path fill-rule="evenodd" clip-rule="evenodd" d="M207.5 9.625L183.208 22.875L192.042 27.6892V40.9392L207.5 49.375L222.958 40.9392V27.6892L227.375 25.2821V40.5417H231.792V22.875L207.5 9.625ZM222.561 22.875L207.5 31.09L192.439 22.875L207.5 14.66L222.561 22.875ZM207.5 44.34L218.542 38.3113V30.0963L207.5 36.125L196.458 30.0963V38.3113L207.5 44.34Z" fill="white"/>
<path d="M10.4062 17.5352C10.4062 17.2305 10.3594 16.957 10.2656 16.7148C10.1797 16.4648 10.0156 16.2383 9.77344 16.0352C9.53125 15.8242 9.19141 15.6172 8.75391 15.4141C8.31641 15.2109 7.75 15 7.05469 14.7812C6.28125 14.5312 5.54688 14.25 4.85156 13.9375C4.16406 13.625 3.55469 13.2617 3.02344 12.8477C2.5 12.4258 2.08594 11.9375 1.78125 11.3828C1.48438 10.8281 1.33594 10.1836 1.33594 9.44922C1.33594 8.73828 1.49219 8.09375 1.80469 7.51562C2.11719 6.92969 2.55469 6.42969 3.11719 6.01562C3.67969 5.59375 4.34375 5.26953 5.10938 5.04297C5.88281 4.81641 6.73047 4.70312 7.65234 4.70312C8.91016 4.70312 10.0078 4.92969 10.9453 5.38281C11.8828 5.83594 12.6094 6.45703 13.125 7.24609C13.6484 8.03516 13.9102 8.9375 13.9102 9.95312H10.418C10.418 9.45312 10.3125 9.01562 10.1016 8.64062C9.89844 8.25781 9.58594 7.95703 9.16406 7.73828C8.75 7.51953 8.22656 7.41016 7.59375 7.41016C6.98438 7.41016 6.47656 7.50391 6.07031 7.69141C5.66406 7.87109 5.35938 8.11719 5.15625 8.42969C4.95312 8.73438 4.85156 9.07812 4.85156 9.46094C4.85156 9.75 4.92188 10.0117 5.0625 10.2461C5.21094 10.4805 5.42969 10.6992 5.71875 10.9023C6.00781 11.1055 6.36328 11.2969 6.78516 11.4766C7.20703 11.6562 7.69531 11.832 8.25 12.0039C9.17969 12.2852 9.99609 12.6016 10.6992 12.9531C11.4102 13.3047 12.0039 13.6992 12.4805 14.1367C12.957 14.5742 13.3164 15.0703 13.5586 15.625C13.8008 16.1797 13.9219 16.8086 13.9219 17.5117C13.9219 18.2539 13.7773 18.918 13.4883 19.5039C13.1992 20.0898 12.7812 20.5859 12.2344 20.9922C11.6875 21.3984 11.0352 21.707 10.2773 21.918C9.51953 22.1289 8.67188 22.2344 7.73438 22.2344C6.89062 22.2344 6.05859 22.125 5.23828 21.9062C4.41797 21.6797 3.67188 21.3398 3 20.8867C2.33594 20.4336 1.80469 19.8555 1.40625 19.1523C1.00781 18.4492 0.808594 17.6172 0.808594 16.6562H4.33594C4.33594 17.1875 4.41797 17.6367 4.58203 18.0039C4.74609 18.3711 4.97656 18.668 5.27344 18.8945C5.57812 19.1211 5.9375 19.2852 6.35156 19.3867C6.77344 19.4883 7.23438 19.5391 7.73438 19.5391C8.34375 19.5391 8.84375 19.4531 9.23438 19.2812C9.63281 19.1094 9.92578 18.8711 10.1133 18.5664C10.3086 18.2617 10.4062 17.918 10.4062 17.5352ZM19.6641 9.32031V22H16.2773V9.32031H19.6641ZM16.0664 6.01562C16.0664 5.52344 16.2383 5.11719 16.582 4.79688C16.9258 4.47656 17.3867 4.31641 17.9648 4.31641C18.5352 4.31641 18.9922 4.47656 19.3359 4.79688C19.6875 5.11719 19.8633 5.52344 19.8633 6.01562C19.8633 6.50781 19.6875 6.91406 19.3359 7.23438C18.9922 7.55469 18.5352 7.71484 17.9648 7.71484C17.3867 7.71484 16.9258 7.55469 16.582 7.23438C16.2383 6.91406 16.0664 6.50781 16.0664 6.01562ZM25.8281 11.9453V22H22.4414V9.32031H25.6172L25.8281 11.9453ZM25.3594 15.2148H24.4219C24.4219 14.332 24.5273 13.5195 24.7383 12.7773C24.957 12.0273 25.2734 11.3789 25.6875 10.832C26.1094 10.2773 26.6289 9.84766 27.2461 9.54297C27.8633 9.23828 28.5781 9.08594 29.3906 9.08594C29.9531 9.08594 30.4688 9.17188 30.9375 9.34375C31.4062 9.50781 31.8086 9.76953 32.1445 10.1289C32.4883 10.4805 32.7539 10.9414 32.9414 11.5117C33.1289 12.0742 33.2227 12.75 33.2227 13.5391V22H29.8477V13.9141C29.8477 13.3359 29.7695 12.8906 29.6133 12.5781C29.457 12.2656 29.2344 12.0469 28.9453 11.9219C28.6641 11.7969 28.3242 11.7344 27.9258 11.7344C27.4883 11.7344 27.1055 11.8242 26.7773 12.0039C26.457 12.1836 26.1914 12.4336 25.9805 12.7539C25.7695 13.0664 25.6133 13.4336 25.5117 13.8555C25.4102 14.2773 25.3594 14.7305 25.3594 15.2148ZM32.9062 14.8281L31.6992 14.9805C31.6992 14.1523 31.8008 13.3828 32.0039 12.6719C32.2148 11.9609 32.5234 11.3359 32.9297 10.7969C33.3438 10.2578 33.8555 9.83984 34.4648 9.54297C35.0742 9.23828 35.7773 9.08594 36.5742 9.08594C37.1836 9.08594 37.7383 9.17578 38.2383 9.35547C38.7383 9.52734 39.1641 9.80469 39.5156 10.1875C39.875 10.5625 40.1484 11.0547 40.3359 11.6641C40.5312 12.2734 40.6289 13.0195 40.6289 13.9023V22H37.2422V13.9023C37.2422 13.3164 37.1641 12.8711 37.0078 12.5664C36.8594 12.2539 36.6406 12.0391 36.3516 11.9219C36.0703 11.7969 35.7344 11.7344 35.3438 11.7344C34.9375 11.7344 34.582 11.8164 34.2773 11.9805C33.9727 12.1367 33.7188 12.3555 33.5156 12.6367C33.3125 12.918 33.1602 13.2461 33.0586 13.6211C32.957 13.9883 32.9062 14.3906 32.9062 14.8281ZM50.7422 18.9648V9.32031H54.1172V22H50.9414L50.7422 18.9648ZM51.1172 16.3633L52.1133 16.3398C52.1133 17.1836 52.0156 17.9688 51.8203 18.6953C51.625 19.4141 51.332 20.0391 50.9414 20.5703C50.5508 21.0938 50.0586 21.5039 49.4648 21.8008C48.8711 22.0898 48.1719 22.2344 47.3672 22.2344C46.75 22.2344 46.1797 22.1484 45.6562 21.9766C45.1406 21.7969 44.6953 21.5195 44.3203 21.1445C43.9531 20.7617 43.6641 20.2734 43.4531 19.6797C43.25 19.0781 43.1484 18.3555 43.1484 17.5117V9.32031H46.5234V17.5352C46.5234 17.9102 46.5664 18.2266 46.6523 18.4844C46.7461 18.7422 46.875 18.9531 47.0391 19.1172C47.2031 19.2812 47.3945 19.3984 47.6133 19.4688C47.8398 19.5391 48.0898 19.5742 48.3633 19.5742C49.0586 19.5742 49.6055 19.4336 50.0039 19.1523C50.4102 18.8711 50.6953 18.4883 50.8594 18.0039C51.0312 17.5117 51.1172 16.9648 51.1172 16.3633ZM60.2578 4V22H56.8711V4H60.2578ZM69.8906 19.1406V13.4922C69.8906 13.0859 69.8242 12.7383 69.6914 12.4492C69.5586 12.1523 69.3516 11.9219 69.0703 11.7578C68.7969 11.5938 68.4414 11.5117 68.0039 11.5117C67.6289 11.5117 67.3047 11.5781 67.0312 11.7109C66.7578 11.8359 66.5469 12.0195 66.3984 12.2617C66.25 12.4961 66.1758 12.7734 66.1758 13.0938H62.8008C62.8008 12.5547 62.9258 12.043 63.1758 11.5586C63.4258 11.0742 63.7891 10.6484 64.2656 10.2812C64.7422 9.90625 65.3086 9.61328 65.9648 9.40234C66.6289 9.19141 67.3711 9.08594 68.1914 9.08594C69.1758 9.08594 70.0508 9.25 70.8164 9.57812C71.582 9.90625 72.1836 10.3984 72.6211 11.0547C73.0664 11.7109 73.2891 12.5312 73.2891 13.5156V18.9414C73.2891 19.6367 73.332 20.207 73.418 20.6523C73.5039 21.0898 73.6289 21.4727 73.793 21.8008V22H70.3828C70.2188 21.6562 70.0938 21.2266 70.0078 20.7109C69.9297 20.1875 69.8906 19.6641 69.8906 19.1406ZM70.3359 14.2773L70.3594 16.1875H68.4727C68.0273 16.1875 67.6406 16.2383 67.3125 16.3398C66.9844 16.4414 66.7148 16.5859 66.5039 16.7734C66.293 16.9531 66.1367 17.1641 66.0352 17.4062C65.9414 17.6484 65.8945 17.9141 65.8945 18.2031C65.8945 18.4922 65.9609 18.7539 66.0938 18.9883C66.2266 19.2148 66.418 19.3945 66.668 19.5273C66.918 19.6523 67.2109 19.7148 67.5469 19.7148C68.0547 19.7148 68.4961 19.6133 68.8711 19.4102C69.2461 19.207 69.5352 18.957 69.7383 18.6602C69.9492 18.3633 70.0586 18.082 70.0664 17.8164L70.957 19.2461C70.832 19.5664 70.6602 19.8984 70.4414 20.2422C70.2305 20.5859 69.9609 20.9102 69.6328 21.2148C69.3047 21.5117 68.9102 21.7578 68.4492 21.9531C67.9883 22.1406 67.4414 22.2344 66.8086 22.2344C66.0039 22.2344 65.2734 22.0742 64.6172 21.7539C63.9688 21.4258 63.4531 20.9766 63.0703 20.4062C62.6953 19.8281 62.5078 19.1719 62.5078 18.4375C62.5078 17.7734 62.6328 17.1836 62.8828 16.668C63.1328 16.1523 63.5 15.7188 63.9844 15.3672C64.4766 15.0078 65.0898 14.7383 65.8242 14.5586C66.5586 14.3711 67.4102 14.2773 68.3789 14.2773H70.3359ZM82.1016 9.32031V11.7109H74.7188V9.32031H82.1016ZM76.5469 6.19141H79.9219V18.1797C79.9219 18.5469 79.9688 18.8281 80.0625 19.0234C80.1641 19.2188 80.3125 19.3555 80.5078 19.4336C80.7031 19.5039 80.9492 19.5391 81.2461 19.5391C81.457 19.5391 81.6445 19.5312 81.8086 19.5156C81.9805 19.4922 82.125 19.4688 82.2422 19.4453L82.2539 21.9297C81.9648 22.0234 81.6523 22.0977 81.3164 22.1523C80.9805 22.207 80.6094 22.2344 80.2031 22.2344C79.4609 22.2344 78.8125 22.1133 78.2578 21.8711C77.7109 21.6211 77.2891 21.2227 76.9922 20.6758C76.6953 20.1289 76.5469 19.4102 76.5469 18.5195V6.19141ZM83.1797 15.7891V15.543C83.1797 14.6133 83.3125 13.7578 83.5781 12.9766C83.8438 12.1875 84.2305 11.5039 84.7383 10.9258C85.2461 10.3477 85.8711 9.89844 86.6133 9.57812C87.3555 9.25 88.207 9.08594 89.168 9.08594C90.1289 9.08594 90.9844 9.25 91.7344 9.57812C92.4844 9.89844 93.1133 10.3477 93.6211 10.9258C94.1367 11.5039 94.5273 12.1875 94.793 12.9766C95.0586 13.7578 95.1914 14.6133 95.1914 15.543V15.7891C95.1914 16.7109 95.0586 17.5664 94.793 18.3555C94.5273 19.1367 94.1367 19.8203 93.6211 20.4062C93.1133 20.9844 92.4883 21.4336 91.7461 21.7539C91.0039 22.0742 90.1523 22.2344 89.1914 22.2344C88.2305 22.2344 87.375 22.0742 86.625 21.7539C85.8828 21.4336 85.2539 20.9844 84.7383 20.4062C84.2305 19.8203 83.8438 19.1367 83.5781 18.3555C83.3125 17.5664 83.1797 16.7109 83.1797 15.7891ZM86.5547 15.543V15.7891C86.5547 16.3203 86.6016 16.8164 86.6953 17.2773C86.7891 17.7383 86.9375 18.1445 87.1406 18.4961C87.3516 18.8398 87.625 19.1094 87.9609 19.3047C88.2969 19.5 88.707 19.5977 89.1914 19.5977C89.6602 19.5977 90.0625 19.5 90.3984 19.3047C90.7344 19.1094 91.0039 18.8398 91.207 18.4961C91.4102 18.1445 91.5586 17.7383 91.6523 17.2773C91.7539 16.8164 91.8047 16.3203 91.8047 15.7891V15.543C91.8047 15.0273 91.7539 14.543 91.6523 14.0898C91.5586 13.6289 91.4062 13.2227 91.1953 12.8711C90.9922 12.5117 90.7227 12.2305 90.3867 12.0273C90.0508 11.8242 89.6445 11.7227 89.168 11.7227C88.6914 11.7227 88.2852 11.8242 87.9492 12.0273C87.6211 12.2305 87.3516 12.5117 87.1406 12.8711C86.9375 13.2227 86.7891 13.6289 86.6953 14.0898C86.6016 14.543 86.5547 15.0273 86.5547 15.543ZM100.641 12.0859V22H97.2656V9.32031H100.441L100.641 12.0859ZM104.461 9.23828L104.402 12.3672C104.238 12.3438 104.039 12.3242 103.805 12.3086C103.578 12.2852 103.371 12.2734 103.184 12.2734C102.707 12.2734 102.293 12.3359 101.941 12.4609C101.598 12.5781 101.309 12.7539 101.074 12.9883C100.848 13.2227 100.676 13.5078 100.559 13.8438C100.449 14.1797 100.387 14.5625 100.371 14.9922L99.6914 14.7812C99.6914 13.9609 99.7734 13.207 99.9375 12.5195C100.102 11.8242 100.34 11.2188 100.652 10.7031C100.973 10.1875 101.363 9.78906 101.824 9.50781C102.285 9.22656 102.812 9.08594 103.406 9.08594C103.594 9.08594 103.785 9.10156 103.98 9.13281C104.176 9.15625 104.336 9.19141 104.461 9.23828ZM115.758 4.9375V22H112.242V4.9375H115.758ZM122.555 12.2266V14.9688H114.797V12.2266H122.555ZM123.375 4.9375V7.69141H114.797V4.9375H123.375ZM124.406 15.7891V15.543C124.406 14.6133 124.539 13.7578 124.805 12.9766C125.07 12.1875 125.457 11.5039 125.965 10.9258C126.473 10.3477 127.098 9.89844 127.84 9.57812C128.582 9.25 129.434 9.08594 130.395 9.08594C131.355 9.08594 132.211 9.25 132.961 9.57812C133.711 9.89844 134.34 10.3477 134.848 10.9258C135.363 11.5039 135.754 12.1875 136.02 12.9766C136.285 13.7578 136.418 14.6133 136.418 15.543V15.7891C136.418 16.7109 136.285 17.5664 136.02 18.3555C135.754 19.1367 135.363 19.8203 134.848 20.4062C134.34 20.9844 133.715 21.4336 132.973 21.7539C132.23 22.0742 131.379 22.2344 130.418 22.2344C129.457 22.2344 128.602 22.0742 127.852 21.7539C127.109 21.4336 126.48 20.9844 125.965 20.4062C125.457 19.8203 125.07 19.1367 124.805 18.3555C124.539 17.5664 124.406 16.7109 124.406 15.7891ZM127.781 15.543V15.7891C127.781 16.3203 127.828 16.8164 127.922 17.2773C128.016 17.7383 128.164 18.1445 128.367 18.4961C128.578 18.8398 128.852 19.1094 129.188 19.3047C129.523 19.5 129.934 19.5977 130.418 19.5977C130.887 19.5977 131.289 19.5 131.625 19.3047C131.961 19.1094 132.23 18.8398 132.434 18.4961C132.637 18.1445 132.785 17.7383 132.879 17.2773C132.98 16.8164 133.031 16.3203 133.031 15.7891V15.543C133.031 15.0273 132.98 14.543 132.879 14.0898C132.785 13.6289 132.633 13.2227 132.422 12.8711C132.219 12.5117 131.949 12.2305 131.613 12.0273C131.277 11.8242 130.871 11.7227 130.395 11.7227C129.918 11.7227 129.512 11.8242 129.176 12.0273C128.848 12.2305 128.578 12.5117 128.367 12.8711C128.164 13.2227 128.016 13.6289 127.922 14.0898C127.828 14.543 127.781 15.0273 127.781 15.543ZM141.867 12.0859V22H138.492V9.32031H141.668L141.867 12.0859ZM145.688 9.23828L145.629 12.3672C145.465 12.3438 145.266 12.3242 145.031 12.3086C144.805 12.2852 144.598 12.2734 144.41 12.2734C143.934 12.2734 143.52 12.3359 143.168 12.4609C142.824 12.5781 142.535 12.7539 142.301 12.9883C142.074 13.2227 141.902 13.5078 141.785 13.8438C141.676 14.1797 141.613 14.5625 141.598 14.9922L140.918 14.7812C140.918 13.9609 141 13.207 141.164 12.5195C141.328 11.8242 141.566 11.2188 141.879 10.7031C142.199 10.1875 142.59 9.78906 143.051 9.50781C143.512 9.22656 144.039 9.08594 144.633 9.08594C144.82 9.08594 145.012 9.10156 145.207 9.13281C145.402 9.15625 145.562 9.19141 145.688 9.23828ZM12.9727 47.2578V50H3.89062V47.2578H12.9727ZM5.03906 32.9375V50H1.52344V32.9375H5.03906ZM11.7891 39.8867V42.5586H3.89062V39.8867H11.7891ZM12.9609 32.9375V35.6914H3.89062V32.9375H12.9609ZM18.1172 40.0273V50H14.7422V37.3203H17.9062L18.1172 40.0273ZM17.625 43.2148H16.7109C16.7109 42.2773 16.832 41.4336 17.0742 40.6836C17.3164 39.9258 17.6562 39.2812 18.0938 38.75C18.5312 38.2109 19.0508 37.8008 19.6523 37.5195C20.2617 37.2305 20.9414 37.0859 21.6914 37.0859C22.2852 37.0859 22.8281 37.1719 23.3203 37.3438C23.8125 37.5156 24.2344 37.7891 24.5859 38.1641C24.9453 38.5391 25.2188 39.0352 25.4062 39.6523C25.6016 40.2695 25.6992 41.0234 25.6992 41.9141V50H22.3008V41.9023C22.3008 41.3398 22.2227 40.9023 22.0664 40.5898C21.9102 40.2773 21.6797 40.0586 21.375 39.9336C21.0781 39.8008 20.7109 39.7344 20.2734 39.7344C19.8203 39.7344 19.4258 39.8242 19.0898 40.0039C18.7617 40.1836 18.4883 40.4336 18.2695 40.7539C18.0586 41.0664 17.8984 41.4336 17.7891 41.8555C17.6797 42.2773 17.625 42.7305 17.625 43.2148ZM36.293 37.3203H39.3516V49.5781C39.3516 50.7344 39.0938 51.7148 38.5781 52.5195C38.0703 53.332 37.3594 53.9453 36.4453 54.3594C35.5312 54.7812 34.4688 54.9922 33.2578 54.9922C32.7266 54.9922 32.1641 54.9219 31.5703 54.7812C30.9844 54.6406 30.4219 54.4219 29.8828 54.125C29.3516 53.8281 28.9062 53.4531 28.5469 53L30.0352 51.0078C30.4258 51.4609 30.8789 51.8125 31.3945 52.0625C31.9102 52.3203 32.4805 52.4492 33.1055 52.4492C33.7148 52.4492 34.2305 52.3359 34.6523 52.1094C35.0742 51.8906 35.3984 51.5664 35.625 51.1367C35.8516 50.7148 35.9648 50.2031 35.9648 49.6016V40.25L36.293 37.3203ZM27.7617 43.8125V43.5664C27.7617 42.5977 27.8789 41.7188 28.1133 40.9297C28.3555 40.1328 28.6953 39.4492 29.1328 38.8789C29.5781 38.3086 30.1172 37.8672 30.75 37.5547C31.3828 37.2422 32.0977 37.0859 32.8945 37.0859C33.7383 37.0859 34.4453 37.2422 35.0156 37.5547C35.5859 37.8672 36.0547 38.3125 36.4219 38.8906C36.7891 39.4609 37.0742 40.1367 37.2773 40.918C37.4883 41.6914 37.6523 42.5391 37.7695 43.4609V44C37.6523 44.8828 37.4766 45.7031 37.2422 46.4609C37.0078 47.2188 36.6992 47.8828 36.3164 48.4531C35.9336 49.0156 35.457 49.4531 34.8867 49.7656C34.3242 50.0781 33.6523 50.2344 32.8711 50.2344C32.0898 50.2344 31.3828 50.0742 30.75 49.7539C30.125 49.4336 29.5898 48.9844 29.1445 48.4062C28.6992 47.8281 28.3555 47.1484 28.1133 46.3672C27.8789 45.5859 27.7617 44.7344 27.7617 43.8125ZM31.1367 43.5664V43.8125C31.1367 44.3359 31.1875 44.8242 31.2891 45.2773C31.3906 45.7305 31.5469 46.1328 31.7578 46.4844C31.9766 46.8281 32.2461 47.0977 32.5664 47.293C32.8945 47.4805 33.2812 47.5742 33.7266 47.5742C34.3438 47.5742 34.8477 47.4453 35.2383 47.1875C35.6289 46.9219 35.9219 46.5586 36.1172 46.0977C36.3125 45.6367 36.4258 45.1055 36.457 44.5039V42.9688C36.4414 42.4766 36.375 42.0352 36.2578 41.6445C36.1406 41.2461 35.9766 40.9062 35.7656 40.625C35.5547 40.3438 35.2812 40.125 34.9453 39.9688C34.6094 39.8125 34.2109 39.7344 33.75 39.7344C33.3047 39.7344 32.918 39.8359 32.5898 40.0391C32.2695 40.2344 32 40.5039 31.7812 40.8477C31.5703 41.1914 31.4102 41.5977 31.3008 42.0664C31.1914 42.5273 31.1367 43.0273 31.1367 43.5664ZM45.5391 32V50H42.1523V32H45.5391ZM51.8906 37.3203V50H48.5039V37.3203H51.8906ZM48.293 34.0156C48.293 33.5234 48.4648 33.1172 48.8086 32.7969C49.1523 32.4766 49.6133 32.3164 50.1914 32.3164C50.7617 32.3164 51.2188 32.4766 51.5625 32.7969C51.9141 33.1172 52.0898 33.5234 52.0898 34.0156C52.0898 34.5078 51.9141 34.9141 51.5625 35.2344C51.2188 35.5547 50.7617 35.7148 50.1914 35.7148C49.6133 35.7148 49.1523 35.5547 48.8086 35.2344C48.4648 34.9141 48.293 34.5078 48.293 34.0156ZM61.5352 46.4961C61.5352 46.2539 61.4648 46.0352 61.3242 45.8398C61.1836 45.6445 60.9219 45.4648 60.5391 45.3008C60.1641 45.1289 59.6211 44.9727 58.9102 44.832C58.2695 44.6914 57.6719 44.5156 57.1172 44.3047C56.5703 44.0859 56.0938 43.8242 55.6875 43.5195C55.2891 43.2148 54.9766 42.8555 54.75 42.4414C54.5234 42.0195 54.4102 41.5391 54.4102 41C54.4102 40.4688 54.5234 39.9688 54.75 39.5C54.9844 39.0312 55.3164 38.6172 55.7461 38.2578C56.1836 37.8906 56.7148 37.6055 57.3398 37.4023C57.9727 37.1914 58.6836 37.0859 59.4727 37.0859C60.5742 37.0859 61.5195 37.2617 62.3086 37.6133C63.1055 37.9648 63.7148 38.4492 64.1367 39.0664C64.5664 39.6758 64.7812 40.3711 64.7812 41.1523H61.4062C61.4062 40.8242 61.3359 40.5312 61.1953 40.2734C61.0625 40.0078 60.8516 39.8008 60.5625 39.6523C60.2812 39.4961 59.9141 39.418 59.4609 39.418C59.0859 39.418 58.7617 39.4844 58.4883 39.6172C58.2148 39.7422 58.0039 39.9141 57.8555 40.1328C57.7148 40.3438 57.6445 40.5781 57.6445 40.8359C57.6445 41.0312 57.6836 41.207 57.7617 41.3633C57.8477 41.5117 57.9844 41.6484 58.1719 41.7734C58.3594 41.8984 58.6016 42.0156 58.8984 42.125C59.2031 42.2266 59.5781 42.3203 60.0234 42.4062C60.9375 42.5938 61.7539 42.8398 62.4727 43.1445C63.1914 43.4414 63.7617 43.8477 64.1836 44.3633C64.6055 44.8711 64.8164 45.5391 64.8164 46.3672C64.8164 46.9297 64.6914 47.4453 64.4414 47.9141C64.1914 48.3828 63.832 48.793 63.3633 49.1445C62.8945 49.4883 62.332 49.7578 61.6758 49.9531C61.0273 50.1406 60.2969 50.2344 59.4844 50.2344C58.3047 50.2344 57.3047 50.0234 56.4844 49.6016C55.6719 49.1797 55.0547 48.6445 54.6328 47.9961C54.2188 47.3398 54.0117 46.668 54.0117 45.9805H57.2109C57.2266 46.4414 57.3438 46.8125 57.5625 47.0938C57.7891 47.375 58.0742 47.5781 58.418 47.7031C58.7695 47.8281 59.1484 47.8906 59.5547 47.8906C59.9922 47.8906 60.3555 47.832 60.6445 47.7148C60.9336 47.5898 61.1523 47.4258 61.3008 47.2227C61.457 47.0117 61.5352 46.7695 61.5352 46.4961ZM70.3008 32V50H66.9258V32H70.3008ZM69.8203 43.2148H68.8945C68.9023 42.332 69.0195 41.5195 69.2461 40.7773C69.4727 40.0273 69.7969 39.3789 70.2188 38.832C70.6406 38.2773 71.1445 37.8477 71.7305 37.543C72.3242 37.2383 72.9805 37.0859 73.6992 37.0859C74.3242 37.0859 74.8906 37.1758 75.3984 37.3555C75.9141 37.5273 76.3555 37.8086 76.7227 38.1992C77.0977 38.582 77.3867 39.0859 77.5898 39.7109C77.793 40.3359 77.8945 41.0938 77.8945 41.9844V50H74.4961V41.9609C74.4961 41.3984 74.4141 40.957 74.25 40.6367C74.0938 40.3086 73.8633 40.0781 73.5586 39.9453C73.2617 39.8047 72.8945 39.7344 72.457 39.7344C71.9727 39.7344 71.5586 39.8242 71.2148 40.0039C70.8789 40.1836 70.6094 40.4336 70.4062 40.7539C70.2031 41.0664 70.0547 41.4336 69.9609 41.8555C69.8672 42.2773 69.8203 42.7305 69.8203 43.2148ZM90.7617 47.293L94.1602 32.9375H96.0586L96.4922 35.3281L92.8711 50H90.832L90.7617 47.293ZM89.0156 32.9375L91.8281 47.293L91.5938 50H89.3203L85.5352 32.9375H89.0156ZM99.4805 47.2344L102.258 32.9375H105.738L101.965 50H99.6914L99.4805 47.2344ZM97.125 32.9375L100.547 47.3516L100.453 50H98.4141L94.7695 35.3164L95.2383 32.9375H97.125ZM106.523 43.7891V43.543C106.523 42.6133 106.656 41.7578 106.922 40.9766C107.188 40.1875 107.574 39.5039 108.082 38.9258C108.59 38.3477 109.215 37.8984 109.957 37.5781C110.699 37.25 111.551 37.0859 112.512 37.0859C113.473 37.0859 114.328 37.25 115.078 37.5781C115.828 37.8984 116.457 38.3477 116.965 38.9258C117.48 39.5039 117.871 40.1875 118.137 40.9766C118.402 41.7578 118.535 42.6133 118.535 43.543V43.7891C118.535 44.7109 118.402 45.5664 118.137 46.3555C117.871 47.1367 117.48 47.8203 116.965 48.4062C116.457 48.9844 115.832 49.4336 115.09 49.7539C114.348 50.0742 113.496 50.2344 112.535 50.2344C111.574 50.2344 110.719 50.0742 109.969 49.7539C109.227 49.4336 108.598 48.9844 108.082 48.4062C107.574 47.8203 107.188 47.1367 106.922 46.3555C106.656 45.5664 106.523 44.7109 106.523 43.7891ZM109.898 43.543V43.7891C109.898 44.3203 109.945 44.8164 110.039 45.2773C110.133 45.7383 110.281 46.1445 110.484 46.4961C110.695 46.8398 110.969 47.1094 111.305 47.3047C111.641 47.5 112.051 47.5977 112.535 47.5977C113.004 47.5977 113.406 47.5 113.742 47.3047C114.078 47.1094 114.348 46.8398 114.551 46.4961C114.754 46.1445 114.902 45.7383 114.996 45.2773C115.098 44.8164 115.148 44.3203 115.148 43.7891V43.543C115.148 43.0273 115.098 42.543 114.996 42.0898C114.902 41.6289 114.75 41.2227 114.539 40.8711C114.336 40.5117 114.066 40.2305 113.73 40.0273C113.395 39.8242 112.988 39.7227 112.512 39.7227C112.035 39.7227 111.629 39.8242 111.293 40.0273C110.965 40.2305 110.695 40.5117 110.484 40.8711C110.281 41.2227 110.133 41.6289 110.039 42.0898C109.945 42.543 109.898 43.0273 109.898 43.543ZM123.984 40.0859V50H120.609V37.3203H123.785L123.984 40.0859ZM127.805 37.2383L127.746 40.3672C127.582 40.3438 127.383 40.3242 127.148 40.3086C126.922 40.2852 126.715 40.2734 126.527 40.2734C126.051 40.2734 125.637 40.3359 125.285 40.4609C124.941 40.5781 124.652 40.7539 124.418 40.9883C124.191 41.2227 124.02 41.5078 123.902 41.8438C123.793 42.1797 123.73 42.5625 123.715 42.9922L123.035 42.7812C123.035 41.9609 123.117 41.207 123.281 40.5195C123.445 39.8242 123.684 39.2188 123.996 38.7031C124.316 38.1875 124.707 37.7891 125.168 37.5078C125.629 37.2266 126.156 37.0859 126.75 37.0859C126.938 37.0859 127.129 37.1016 127.324 37.1328C127.52 37.1562 127.68 37.1914 127.805 37.2383ZM136.652 47.2344V32H140.051V50H136.992L136.652 47.2344ZM128.637 43.8125V43.5664C128.637 42.5977 128.746 41.7188 128.965 40.9297C129.184 40.1328 129.504 39.4492 129.926 38.8789C130.348 38.3086 130.867 37.8672 131.484 37.5547C132.102 37.2422 132.805 37.0859 133.594 37.0859C134.336 37.0859 134.984 37.2422 135.539 37.5547C136.102 37.8672 136.578 38.3125 136.969 38.8906C137.367 39.4609 137.688 40.1367 137.93 40.918C138.172 41.6914 138.348 42.5391 138.457 43.4609V44C138.348 44.8828 138.172 45.7031 137.93 46.4609C137.688 47.2188 137.367 47.8828 136.969 48.4531C136.578 49.0156 136.102 49.4531 135.539 49.7656C134.977 50.0781 134.32 50.2344 133.57 50.2344C132.781 50.2344 132.078 50.0742 131.461 49.7539C130.852 49.4336 130.336 48.9844 129.914 48.4062C129.5 47.8281 129.184 47.1484 128.965 46.3672C128.746 45.5859 128.637 44.7344 128.637 43.8125ZM132.012 43.5664V43.8125C132.012 44.3359 132.051 44.8242 132.129 45.2773C132.215 45.7305 132.352 46.1328 132.539 46.4844C132.734 46.8281 132.984 47.0977 133.289 47.293C133.602 47.4805 133.98 47.5742 134.426 47.5742C135.004 47.5742 135.48 47.4453 135.855 47.1875C136.23 46.9219 136.516 46.5586 136.711 46.0977C136.914 45.6367 137.031 45.1055 137.062 44.5039V42.9688C137.039 42.4766 136.969 42.0352 136.852 41.6445C136.742 41.2461 136.578 40.9062 136.359 40.625C136.148 40.3438 135.883 40.125 135.562 39.9688C135.25 39.8125 134.879 39.7344 134.449 39.7344C134.012 39.7344 133.637 39.8359 133.324 40.0391C133.012 40.2344 132.758 40.5039 132.562 40.8477C132.375 41.1914 132.234 41.5977 132.141 42.0664C132.055 42.5273 132.012 43.0273 132.012 43.5664ZM149.543 46.4961C149.543 46.2539 149.473 46.0352 149.332 45.8398C149.191 45.6445 148.93 45.4648 148.547 45.3008C148.172 45.1289 147.629 44.9727 146.918 44.832C146.277 44.6914 145.68 44.5156 145.125 44.3047C144.578 44.0859 144.102 43.8242 143.695 43.5195C143.297 43.2148 142.984 42.8555 142.758 42.4414C142.531 42.0195 142.418 41.5391 142.418 41C142.418 40.4688 142.531 39.9688 142.758 39.5C142.992 39.0312 143.324 38.6172 143.754 38.2578C144.191 37.8906 144.723 37.6055 145.348 37.4023C145.98 37.1914 146.691 37.0859 147.48 37.0859C148.582 37.0859 149.527 37.2617 150.316 37.6133C151.113 37.9648 151.723 38.4492 152.145 39.0664C152.574 39.6758 152.789 40.3711 152.789 41.1523H149.414C149.414 40.8242 149.344 40.5312 149.203 40.2734C149.07 40.0078 148.859 39.8008 148.57 39.6523C148.289 39.4961 147.922 39.418 147.469 39.418C147.094 39.418 146.77 39.4844 146.496 39.6172C146.223 39.7422 146.012 39.9141 145.863 40.1328C145.723 40.3438 145.652 40.5781 145.652 40.8359C145.652 41.0312 145.691 41.207 145.77 41.3633C145.855 41.5117 145.992 41.6484 146.18 41.7734C146.367 41.8984 146.609 42.0156 146.906 42.125C147.211 42.2266 147.586 42.3203 148.031 42.4062C148.945 42.5938 149.762 42.8398 150.48 43.1445C151.199 43.4414 151.77 43.8477 152.191 44.3633C152.613 44.8711 152.824 45.5391 152.824 46.3672C152.824 46.9297 152.699 47.4453 152.449 47.9141C152.199 48.3828 151.84 48.793 151.371 49.1445C150.902 49.4883 150.34 49.7578 149.684 49.9531C149.035 50.1406 148.305 50.2344 147.492 50.2344C146.312 50.2344 145.312 50.0234 144.492 49.6016C143.68 49.1797 143.062 48.6445 142.641 47.9961C142.227 47.3398 142.02 46.668 142.02 45.9805H145.219C145.234 46.4414 145.352 46.8125 145.57 47.0938C145.797 47.375 146.082 47.5781 146.426 47.7031C146.777 47.8281 147.156 47.8906 147.562 47.8906C148 47.8906 148.363 47.832 148.652 47.7148C148.941 47.5898 149.16 47.4258 149.309 47.2227C149.465 47.0117 149.543 46.7695 149.543 46.4961Z" fill="white"/>
</svg>
