<svg width="49" height="51" viewBox="0 0 49 51" fill="none" xmlns="http://www.w3.org/2000/svg">
<path fill-rule="evenodd" clip-rule="evenodd" d="M32.2676 0.895752H17.5322C4.08409 0.895752 0.899902 4.21262 0.899902 18.2211V33.5704C0.899902 47.5789 4.08409 50.8958 17.5322 50.8958H32.2676C45.7157 50.8958 48.8999 47.5789 48.8999 33.5704V18.2211C48.8999 4.21262 45.7157 0.895752 32.2676 0.895752ZM39.1441 16.7744C40.1942 16.7744 40.4313 17.3389 40.1942 18.1152C39.8242 19.8943 36.7511 24.6136 35.7993 26.0754C35.6184 26.3531 35.5141 26.5132 35.5196 26.5132C35.1469 27.1484 35.0114 27.4307 35.5196 28.1364C35.7032 28.3973 36.0927 28.7954 36.5379 29.2505C36.9957 29.7184 37.5124 30.2466 37.9246 30.7475C39.4151 32.5118 40.5668 33.9938 40.8717 35.0171C41.1427 36.0404 40.6685 36.5697 39.6522 36.5697H36.1632C35.2385 36.5697 34.7619 36.0166 33.7462 34.8377C33.3106 34.3323 32.776 33.7118 32.0644 32.9706C29.998 30.8887 29.0834 30.6064 28.5753 30.6064C27.8639 30.6064 27.6607 30.7828 27.6607 31.8414V35.123C27.6607 36.0051 27.3897 36.5344 25.154 36.5344C21.4617 36.5344 17.3629 34.2056 14.4836 29.8654C10.1476 23.514 8.96204 18.7151 8.96204 17.7624C8.96204 17.2331 9.13141 16.7391 10.1476 16.7391H13.6706C14.5513 16.7391 14.8901 17.1272 15.2288 18.1505C16.9564 23.3375 19.8357 27.8894 21.0213 27.8894C21.4617 27.8894 21.6649 27.6777 21.6649 26.5132V21.1498C21.5813 19.6253 21.0718 18.9611 20.694 18.4685C20.4597 18.1631 20.2761 17.9236 20.2761 17.5859C20.2761 17.1625 20.6148 16.7391 21.1568 16.7391H26.6445C27.3897 16.7391 27.6607 17.1625 27.6607 18.0799V25.3135C27.6607 26.0898 27.9656 26.3721 28.2027 26.3721C28.6431 26.3721 29.0157 26.0898 29.8287 25.243C32.3354 22.3142 34.1307 17.7977 34.1307 17.7977C34.3678 17.2684 34.7743 16.7744 35.655 16.7744H39.1441Z" fill="white"/>
</svg>
